<svg width="22" height="22" viewBox="0 0 22 22" fill="none" xmlns="http://www.w3.org/2000/svg">
<rect y="0.366211" width="21.327" height="21.327" rx="10.6635" fill="#627EEA"/>
<g clip-path="url(#clip0_289_2786)">
<path d="M10.5026 3.9209L10.4081 4.2449V13.6459L10.5026 13.741L14.8262 11.1616L10.5026 3.9209Z" fill="#A4B2E6"/>
<path d="M10.5007 3.9209L6.177 11.1616L10.5007 13.741V9.17807V3.9209Z" fill="white"/>
<path d="M10.5026 14.5679L10.4493 14.6334V17.9822L10.5026 18.1391L14.8288 11.9897L10.5026 14.5679Z" fill="#C1CCF7"/>
<path d="M10.5008 18.1391V14.5679L6.17712 11.9897L10.5008 18.1391Z" fill="white"/>
<path d="M10.5029 13.7407L14.8265 11.1613L10.5029 9.17773V13.7407Z" fill="#C1CCF7"/>
<path d="M6.17712 11.1613L10.5008 13.7407V9.17773L6.17712 11.1613Z" fill="#A8B6ED"/>
</g>
<defs>
<clipPath id="clip0_289_2786">
<rect width="9.6847" height="14.218" fill="white" transform="translate(5.92395 3.9209)"/>
</clipPath>
</defs>
</svg>
