<svg width="22" height="23" viewBox="0 0 22 23" fill="none" xmlns="http://www.w3.org/2000/svg">
<path opacity="0.3" d="M13.1019 15.3446C12.7439 14.9867 12.7439 14.4063 13.1019 14.0483C13.4598 13.6903 14.0402 13.6903 14.3982 14.0483L18.0649 17.7149C18.4229 18.0729 18.4229 18.6533 18.0649 19.0113C17.7069 19.3693 17.1265 19.3693 16.7685 19.0113L13.1019 15.3446Z" fill="#4B5675"/>
<path fill-rule="evenodd" clip-rule="evenodd" d="M3.66663 10.113C3.66663 13.6568 6.53947 16.5296 10.0833 16.5296C13.6271 16.5296 16.5 13.6568 16.5 10.113C16.5 6.56913 13.6271 3.69629 10.0833 3.69629C6.53947 3.69629 3.66663 6.56913 3.66663 10.113ZM14.6666 10.113C14.6666 12.6443 12.6146 14.6963 10.0833 14.6963C7.55199 14.6963 5.49996 12.6443 5.49996 10.113C5.49996 7.58165 7.55199 5.52962 10.0833 5.52962C12.6146 5.52962 14.6666 7.58165 14.6666 10.113Z" fill="#4B5675"/>
</svg>
