<svg width="52" height="52" viewBox="0 0 52 52" fill="none" xmlns="http://www.w3.org/2000/svg">
<rect width="52" height="52" rx="26" fill="#20D489" fill-opacity="0.05"/>
<path opacity="0.3" d="M36.2178 33.3027L27.4442 36.8335C26.6952 37.1545 25.9462 37.1545 25.1973 36.8335L16.4236 33.3027C15.3536 32.8747 15.3536 31.3768 16.4236 30.9488L17.8145 30.4138L24.4483 33.0887C25.0903 33.3027 25.7322 33.4097 26.3742 33.4097C27.0162 33.4097 27.6582 33.3027 28.3001 33.0887L34.9339 30.4138L36.3248 30.9488C37.3948 31.3768 37.3948 32.8747 36.2178 33.3027ZM27.4442 31.0558L36.2178 27.5249C37.2878 27.0969 37.2878 25.599 36.2178 25.171L27.4442 21.6402C26.6952 21.3192 25.9462 21.3192 25.1973 21.6402L16.4236 25.171C15.3536 25.599 15.3536 27.0969 16.4236 27.5249L25.1973 31.0558C25.9462 31.3768 26.8022 31.3768 27.4442 31.0558Z" fill="#20D489"/>
<path d="M25.3051 25.278L16.5314 21.7471C15.4614 21.3191 15.4614 19.8212 16.5314 19.3932L25.3051 15.8623C26.054 15.5413 26.803 15.5413 27.552 15.8623L36.3256 19.3932C37.3956 19.8212 37.3956 21.3191 36.3256 21.7471L27.445 25.278C26.803 25.5989 25.947 25.5989 25.3051 25.278Z" fill="#20D489"/>
</svg>
