<svg width="22" height="22" viewBox="0 0 22 22" fill="none" xmlns="http://www.w3.org/2000/svg">
<rect y="0.396484" width="21.327" height="21.327" rx="10.6635" fill="#627EEA"/>
<g clip-path="url(#clip0_381_1151)">
<path d="M10.5027 3.95117L10.4082 4.27517V13.6761L10.5027 13.7713L14.8262 11.1919L10.5027 3.95117Z" fill="#A4B2E6"/>
<path d="M10.5007 3.95117L6.17705 11.1919L10.5007 13.7713V9.20834V3.95117Z" fill="white"/>
<path d="M10.5026 14.5981L10.4493 14.6637V18.0125L10.5026 18.1694L14.8288 12.02L10.5026 14.5981Z" fill="#C1CCF7"/>
<path d="M10.5009 18.1694V14.5981L6.1772 12.02L10.5009 18.1694Z" fill="white"/>
<path d="M10.503 13.771L14.8266 11.1915L10.503 9.20801V13.771Z" fill="#C1CCF7"/>
<path d="M6.1772 11.1915L10.5009 13.771V9.20801L6.1772 11.1915Z" fill="#A8B6ED"/>
</g>
<defs>
<clipPath id="clip0_381_1151">
<rect width="9.6847" height="14.218" fill="white" transform="translate(5.92397 3.95117)"/>
</clipPath>
</defs>
</svg>
